<svg xmlns="http://www.w3.org/2000/svg" width="100" height="69" fill="none" viewBox="0 0 100 69">
  <path fill="#42446E" d="m7.25 56.926-.868 1.218V61h-2.1v-9.772h2.1v4.088h.112l1.064-1.624 1.722-2.464h2.352l-2.926 4.13L11.772 61H9.406L7.25 56.926Zm5.51 2.464h1.667v-4.004H12.76v-1.61h3.738v2.044h.098c.065-.261.154-.513.266-.756.12-.252.27-.471.448-.658.186-.196.41-.35.672-.462.26-.112.569-.168.924-.168h.686v1.904h-1.54c-.514 0-.901.154-1.162.462-.262.299-.392.667-.392 1.106v2.142h2.38V61H12.76v-1.61ZM26.938 61c-.43 0-.774-.107-1.036-.322-.261-.224-.415-.541-.462-.952h-.07c-.13.476-.392.835-.784 1.078-.383.243-.854.364-1.414.364-.7 0-1.264-.187-1.694-.56-.42-.383-.63-.915-.63-1.596 0-.756.275-1.316.826-1.68.55-.364 1.358-.546 2.422-.546h1.162v-.364c0-.43-.103-.751-.308-.966-.196-.224-.532-.336-1.008-.336-.438 0-.793.084-1.064.252a2.47 2.47 0 0 0-.7.658l-1.134-1.008c.243-.41.62-.747 1.134-1.008.523-.27 1.19-.406 2.002-.406.99 0 1.76.229 2.31.686.56.448.84 1.13.84 2.044v3.164h.798V61h-1.19Zm-2.982-1.19c.364 0 .672-.089.924-.266.252-.177.378-.434.378-.77v-.868h-1.106c-.85 0-1.274.285-1.274.854v.28c0 .252.098.443.294.574.196.13.457.196.784.196ZM29.424 61v-7.224h2.072v1.316h.084a3.07 3.07 0 0 1 .308-.574 2.043 2.043 0 0 1 1.036-.784c.233-.084.494-.126.784-.126.345 0 .662.06.952.182.289.112.536.285.742.518.205.233.364.518.476.854.121.336.182.723.182 1.162V61h-2.072v-4.396c0-.933-.406-1.4-1.218-1.4-.159 0-.318.023-.476.07-.15.037-.285.103-.406.196a.972.972 0 0 0-.294.322 1.02 1.02 0 0 0-.098.462V61h-2.072Zm12.244 0c-.746 0-1.302-.196-1.666-.588-.364-.392-.546-.891-.546-1.498v-3.528h-1.96v-1.61h1.274c.308 0 .527-.06.658-.182.13-.121.196-.345.196-.672v-1.694h1.904v2.548h2.814v1.61h-2.814v4.004h2.814V61h-2.674Zm8.283-8.148c-.467 0-.794-.093-.98-.28a1.008 1.008 0 0 1-.266-.7v-.406c0-.28.088-.513.266-.7.186-.187.513-.28.98-.28.466 0 .788.093.966.28a.95.95 0 0 1 .28.7v.406a.98.98 0 0 1-.28.7c-.178.187-.5.28-.966.28Zm-3.332 6.538h2.296v-4.004h-2.296v-1.61h4.368v5.614h2.128V61h-6.496v-1.61Zm7.988-8.75h2.072v5.88h.098l.966-1.134 1.512-1.61h2.38l-2.8 2.856L61.93 61h-2.464l-2.1-3.192-.686.686V61h-2.072V50.64Zm12.903 9.044h-.084c-.159.41-.41.76-.756 1.05-.336.29-.794.434-1.372.434-.346 0-.663-.056-.952-.168a2.011 2.011 0 0 1-.742-.532 2.627 2.627 0 0 1-.49-.854 3.673 3.673 0 0 1-.168-1.162v-4.676h2.072v4.396c0 .933.406 1.4 1.218 1.4.158 0 .313-.019.462-.056a1.111 1.111 0 0 0 .7-.532.915.915 0 0 0 .112-.462v-4.746h2.072V61H67.51v-1.316ZM70.906 61v-7.224h1.666v1.064h.098a2.6 2.6 0 0 1 .476-.868c.215-.243.514-.364.896-.364.7 0 1.13.41 1.288 1.232h.084c.056-.168.126-.327.21-.476.084-.15.187-.28.308-.392.122-.112.266-.2.434-.266.168-.065.364-.098.588-.098 1.008 0 1.512.742 1.512 2.226V61H76.8v-4.956c0-.336-.06-.57-.182-.7a.545.545 0 0 0-.448-.21.657.657 0 0 0-.462.182c-.121.112-.182.29-.182.532V61h-1.68v-4.956c0-.336-.056-.57-.168-.7a.507.507 0 0 0-.434-.21.674.674 0 0 0-.476.182c-.13.112-.196.29-.196.532V61h-1.666ZM85.7 61c-.43 0-.775-.107-1.036-.322-.261-.224-.415-.541-.462-.952h-.07c-.13.476-.392.835-.784 1.078-.383.243-.854.364-1.414.364-.7 0-1.265-.187-1.694-.56-.42-.383-.63-.915-.63-1.596 0-.756.275-1.316.826-1.68.55-.364 1.358-.546 2.422-.546h1.162v-.364c0-.43-.103-.751-.308-.966-.196-.224-.532-.336-1.008-.336-.439 0-.794.084-1.064.252a2.47 2.47 0 0 0-.7.658l-1.134-1.008c.242-.41.62-.747 1.134-1.008.523-.27 1.19-.406 2.002-.406.99 0 1.76.229 2.31.686.56.448.84 1.13.84 2.044v3.164h.798V61H85.7Zm-2.982-1.19c.364 0 .672-.089.924-.266.252-.177.378-.434.378-.77v-.868h-1.106c-.85 0-1.274.285-1.274.854v.28c0 .252.098.443.294.574.196.13.457.196.784.196Zm5.594-.42h1.666v-4.004h-1.666v-1.61h3.738v2.044h.098c.066-.261.154-.513.266-.756.122-.252.271-.471.448-.658.187-.196.411-.35.672-.462.262-.112.57-.168.924-.168h.686v1.904h-1.54c-.513 0-.9.154-1.162.462-.26.299-.392.667-.392 1.106v2.142h2.38V61h-6.118v-1.61ZM12.558 7v3.83c-1.055 0-1.878.152-2.47.453-.591.29-.846.877-.765 1.759l.54 5.136c.138 1.3-.007 2.351-.436 3.152-.417.801-1.06 1.416-1.93 1.846-.859.418-1.873.714-3.044.888 1.24.186 2.29.487 3.148.905.858.418 1.484 1.022 1.878 1.811.395.79.522 1.846.383 3.17l-.54 5.136c-.08.882.175 1.468.766 1.758.592.302 1.415.453 2.47.453v3.83c-3.2 0-5.45-.487-6.749-1.462-1.287-.963-1.809-2.617-1.565-4.962l.522-4.98c.093-.882-.058-1.573-.452-2.072-.383-.5-.951-.848-1.705-1.045-.754-.209-1.623-.313-2.609-.313v-4.458c.974 0 1.838-.099 2.592-.296.753-.209 1.327-.563 1.722-1.062.394-.5.545-1.19.452-2.072l-.522-4.945c-.255-2.391.267-4.063 1.565-5.015C7.11 7.482 9.358 7 12.56 7ZM87 7c3.2 0 5.444.482 6.731 1.445 1.299.964 1.827 2.624 1.583 4.98l-.522 4.98c-.093.882.058 1.573.453 2.072.394.5.962.853 1.704 1.062.754.197 1.624.296 2.61.296v4.458c-.975 0-1.839.104-2.593.313-.753.197-1.327.546-1.721 1.045-.395.499-.546 1.19-.453 2.072l.522 4.945c.267 2.38-.255 4.051-1.565 5.014-1.3.964-3.549 1.446-6.749 1.446v-3.831c1.067 0 1.896-.151 2.487-.453.592-.29.841-.876.748-1.758l-.539-5.137c-.14-1.312 0-2.362.418-3.151.428-.801 1.078-1.41 1.948-1.829.87-.43 1.89-.731 3.06-.905-1.24-.186-2.295-.488-3.165-.906-.858-.418-1.484-1.021-1.878-1.81-.395-.801-.522-1.858-.383-3.17l.54-5.136c.092-.882-.163-1.468-.766-1.759-.591-.301-1.415-.452-2.47-.452V7ZM26.977 37.444c-1.727 0-3.269-.42-4.625-1.258-1.357-.839-2.418-1.998-3.183-3.478-.74-1.48-1.11-3.157-1.11-5.032s.383-3.54 1.147-4.995c.765-1.48 1.826-2.64 3.183-3.478 1.38-.863 2.935-1.295 4.662-1.295 1.405 0 2.627.271 3.663.814a6.106 6.106 0 0 1 2.516 2.22V10.36h4.44V37h-3.997l-.444-2.701a9.386 9.386 0 0 1-1.442 1.554c-.568.469-1.246.851-2.035 1.147-.79.296-1.715.444-2.775.444Zm.924-3.848c1.061 0 1.998-.247 2.813-.74a5.207 5.207 0 0 0 1.886-2.109c.444-.888.666-1.912.666-3.071 0-1.16-.221-2.183-.666-3.071a4.955 4.955 0 0 0-1.887-2.072c-.814-.493-1.75-.74-2.812-.74-1.01 0-1.924.247-2.738.74-.814.493-1.455 1.184-1.924 2.072-.444.888-.666 1.912-.666 3.071 0 1.16.223 2.183.666 3.071a5.478 5.478 0 0 0 1.924 2.109c.814.493 1.727.74 2.738.74Zm23.44 3.848c-1.85 0-3.479-.395-4.885-1.184a8.576 8.576 0 0 1-3.293-3.404c-.789-1.455-1.184-3.133-1.184-5.032 0-1.973.383-3.7 1.147-5.18.79-1.48 1.887-2.64 3.293-3.478 1.431-.839 3.084-1.258 4.958-1.258 1.826 0 3.417.407 4.773 1.221a8.407 8.407 0 0 1 3.145 3.293c.74 1.357 1.11 2.886 1.11 4.588v.814c0 .296-.024.604-.074.925h-15.17V25.9h10.767c-.049-1.357-.505-2.417-1.369-3.182-.863-.79-1.936-1.184-3.219-1.184-.912 0-1.75.21-2.516.629-.764.42-1.369 1.048-1.813 1.887-.444.814-.666 1.85-.666 3.108v1.073c0 1.16.21 2.158.63 2.997.443.839 1.035 1.48 1.775 1.924.765.42 1.616.629 2.553.629 1.036 0 1.887-.222 2.553-.666a3.929 3.929 0 0 0 1.517-1.776h4.514a8.684 8.684 0 0 1-1.702 3.145c-.789.913-1.763 1.64-2.923 2.183-1.159.518-2.466.777-3.922.777ZM68.887 37l-6.882-18.648h4.662l4.921 14.43 4.921-14.43h4.588L74.216 37h-5.328Z"/>
</svg>
